<svg width="766" height="766" viewBox="0 0 766 766" fill="none" xmlns="http://www.w3.org/2000/svg">
<g clip-path="url(#clip0_501_2)">
<path fill-rule="evenodd" clip-rule="evenodd" d="M383 761C591.764 761 761 591.764 761 383C761 174.236 591.764 5 383 5C174.236 5 5 174.236 5 383C5 591.764 174.236 761 383 761Z" fill="#F5F5F5"/>
<path fill-rule="evenodd" clip-rule="evenodd" d="M268.174 253H495.72C499.352 253 502.823 254.502 505.308 257.149L610.566 369.313L715.823 257.149L735 275.112L628.99 388.078L734.566 490.445L716.257 509.292L610.566 406.812L504.874 509.292C502.421 511.67 499.137 513 495.72 513H268.174C263.271 513 258.775 510.273 256.512 505.927L152.179 305.473L52.2572 494.964L29 482.723L140.626 271.036C142.906 266.713 147.399 264.012 152.29 264.025C157.181 264.038 161.66 266.763 163.915 271.098L276.154 486.738H490.39L592.141 388.078L490.026 279.262H268.174V253ZM495.72 399.018H268.174V372.755H495.72V399.018Z" fill="black" stroke="black" stroke-width="16"/>
<path fill-rule="evenodd" clip-rule="evenodd" d="M383 733.147C576.381 733.147 733.147 576.381 733.147 383C733.147 189.619 576.381 32.8526 383 32.8526C189.619 32.8526 32.8526 189.619 32.8526 383C32.8526 576.381 189.619 733.147 383 733.147ZM383 761C591.764 761 761 591.764 761 383C761 174.236 591.764 5 383 5C174.236 5 5 174.236 5 383C5 591.764 174.236 761 383 761Z" fill="black" stroke="black" stroke-width="12"/>
</g>
<defs>
<clipPath id="clip0_501_2">
<rect width="766" height="766" fill="white"/>
</clipPath>
</defs>
</svg>
