<svg width="245" height="36" viewBox="0 0 245 36" fill="none" xmlns="http://www.w3.org/2000/svg">
<path d="M12.4532 25.0425H12.1513C11.5727 25.7464 10.8682 26.3498 10.038 26.8527C9.23298 27.3557 8.18891 27.607 6.90585 27.607C5.94987 27.607 5.04418 27.4435 4.1888 27.1167C3.35858 26.815 2.62902 26.3875 2.00006 25.8345C1.37112 25.2814 0.880535 24.6149 0.528316 23.8356C0.176122 23.0562 0 22.2012 0 21.271C0 20.3155 0.188684 19.4607 0.566053 18.7065C0.943422 17.9271 1.47174 17.2607 2.151 16.7076C2.83027 16.1545 3.62274 15.7397 4.52843 15.463C5.45929 15.1613 6.4656 15.0105 7.54738 15.0105C8.75496 15.0105 9.74871 15.1109 10.5286 15.3122C11.3085 15.4881 11.95 15.6767 12.4532 15.8779V15.3122C12.4532 14.3316 12.0632 13.5269 11.2833 12.8985C10.5034 12.2447 9.53487 11.9179 8.37759 11.9179C6.66687 11.9179 5.22028 12.6345 4.03785 14.0676L0.452843 11.6162C2.41516 9.15208 5.09448 7.92017 8.4908 7.92017C11.3588 7.92017 13.5475 8.59902 15.057 9.95674C16.5665 11.2894 17.3212 13.2756 17.3212 15.9156V27.0036H12.4532V25.0425ZM12.4532 19.4985C11.8746 19.2218 11.2708 19.0082 10.6418 18.8573C10.038 18.6814 9.37134 18.5933 8.64175 18.5933C7.45934 18.5933 6.54107 18.8573 5.88696 19.3853C5.25802 19.8883 4.94353 20.5167 4.94353 21.271C4.94353 22.0253 5.24543 22.6287 5.84922 23.0813C6.47818 23.5339 7.19518 23.7602 8.00022 23.7602C8.65434 23.7602 9.25813 23.647 9.81159 23.4207C10.3651 23.1694 10.8305 22.855 11.2079 22.4779C11.6104 22.0757 11.9123 21.6231 12.1135 21.1202C12.34 20.5922 12.4532 20.0515 12.4532 19.4985ZM29.8224 7.92017C31.2564 7.92017 32.5648 8.17151 33.7471 8.67445C34.9546 9.15208 35.9862 9.83094 36.8415 10.711C37.7221 11.5658 38.4014 12.5967 38.8793 13.8036C39.3825 15.0105 39.634 16.3305 39.634 17.7636C39.634 19.1967 39.3825 20.5167 38.8793 21.7236C38.4014 22.9305 37.7221 23.9738 36.8415 24.8539C35.9862 25.7087 34.9546 26.3875 33.7471 26.8905C32.5648 27.3681 31.2564 27.607 29.8224 27.607C28.3884 27.607 27.0676 27.3681 25.8601 26.8905C24.6778 26.3875 23.6462 25.7087 22.7656 24.8539C21.9103 23.9738 21.2311 22.9305 20.7278 21.7236C20.2499 20.5167 20.0109 19.1967 20.0109 17.7636C20.0109 16.3305 20.2499 15.0105 20.7278 13.8036C21.2311 12.5967 21.9103 11.5658 22.7656 10.711C23.6462 9.83094 24.6778 9.15208 25.8601 8.67445C27.0676 8.17151 28.3884 7.92017 29.8224 7.92017ZM29.8224 23.0436C30.4515 23.0436 31.0553 22.9305 31.6338 22.7042C32.2376 22.4528 32.7659 22.1007 33.2187 21.6482C33.6716 21.1956 34.0239 20.6425 34.2754 19.9887C34.5522 19.3349 34.6905 18.5933 34.6905 17.7636C34.6905 16.9339 34.5522 16.1923 34.2754 15.5385C34.0239 14.8847 33.6716 14.3316 33.2187 13.879C32.7659 13.4265 32.2376 13.087 31.6338 12.8607C31.0553 12.6094 30.4515 12.4836 29.8224 12.4836C29.1685 12.4836 28.552 12.6094 27.9733 12.8607C27.3949 13.087 26.8789 13.4265 26.4261 13.879C25.9733 14.3316 25.6086 14.8847 25.3317 15.5385C25.0802 16.1923 24.9544 16.9339 24.9544 17.7636C24.9544 18.5933 25.0802 19.3349 25.3317 19.9887C25.6086 20.6425 25.9733 21.1956 26.4261 21.6482C26.8789 22.1007 27.3949 22.4528 27.9733 22.7042C28.552 22.9305 29.1685 23.0436 29.8224 23.0436ZM49.9471 27.607C48.7395 27.607 47.6578 27.4562 46.7017 27.1545C45.771 26.8527 44.9532 26.4629 44.2488 25.9853C43.5696 25.4824 42.9909 24.9167 42.5129 24.2882C42.035 23.6344 41.6701 22.9808 41.4186 22.327L45.8338 20.4413C46.2616 21.3968 46.8276 22.1134 47.532 22.591C48.2616 23.0436 49.0665 23.2699 49.9471 23.2699C50.8528 23.2699 51.5698 23.1064 52.0981 22.7796C52.6264 22.4528 52.8906 22.063 52.8906 21.6105C52.8906 21.1075 52.6642 20.7053 52.2113 20.4036C51.7836 20.0768 51.0288 19.7875 49.9471 19.5362L47.3433 18.9705C46.7646 18.8447 46.1608 18.6437 45.5319 18.367C44.9281 18.0904 44.3747 17.7385 43.8715 17.311C43.3682 16.8835 42.9531 16.3682 42.6262 15.7647C42.2992 15.1613 42.1356 14.4574 42.1356 13.6527C42.1356 12.7476 42.3243 11.9429 42.7016 11.239C43.1041 10.5351 43.6451 9.94408 44.3243 9.46645C45.0036 8.96351 45.7961 8.58637 46.7017 8.33502C47.6325 8.05837 48.6263 7.92017 49.683 7.92017C51.4439 7.92017 53.0165 8.27225 54.4001 8.97617C55.7837 9.65502 56.8026 10.7487 57.4568 12.2573L53.1925 13.9922C52.8402 13.2629 52.3245 12.7349 51.6453 12.4082C50.966 12.0814 50.2867 11.9179 49.6075 11.9179C48.9031 11.9179 48.2867 12.0687 47.7584 12.3705C47.2301 12.6471 46.9659 13.0116 46.9659 13.4642C46.9659 13.8917 47.1797 14.2311 47.6074 14.4825C48.0603 14.7338 48.6641 14.9601 49.4188 15.1613L52.2491 15.8402C54.1359 16.2927 55.5322 17.022 56.4379 18.0276C57.3686 19.0082 57.8341 20.1773 57.8341 21.535C57.8341 22.3397 57.6454 23.1064 57.2681 23.8356C56.8907 24.5648 56.3497 25.2184 55.6454 25.7967C54.9661 26.3498 54.1359 26.79 53.1548 27.1167C52.1987 27.4435 51.1296 27.607 49.9471 27.607ZM60.5331 8.52359H65.1747V10.7487H65.4766C65.9294 9.96939 66.6338 9.30294 67.5899 8.74988C68.5457 8.19682 69.7282 7.92017 71.1371 7.92017C72.3194 7.92017 73.4391 8.17151 74.4957 8.67445C75.5774 9.15208 76.5208 9.83094 77.326 10.711C78.1562 11.5658 78.8101 12.5967 79.2883 13.8036C79.7662 15.0105 80.0053 16.3305 80.0053 17.7636C80.0053 19.1967 79.7662 20.5167 79.2883 21.7236C78.8101 22.9305 78.1562 23.9738 77.326 24.8539C76.5208 25.7087 75.5774 26.3875 74.4957 26.8905C73.4391 27.3681 72.3194 27.607 71.1371 27.607C69.7282 27.607 68.5457 27.3304 67.5899 26.7773C66.6338 26.2242 65.9294 25.5578 65.4766 24.7785H65.1747L65.4766 27.4185V35.1499H60.5331V8.52359ZM70.1182 23.0436C70.7722 23.0436 71.3886 22.9178 71.9673 22.6665C72.5711 22.4151 73.0994 22.063 73.5523 21.6105C74.0051 21.1579 74.3698 20.6048 74.6467 19.951C74.9232 19.2972 75.0618 18.5682 75.0618 17.7636C75.0618 16.9589 74.9232 16.23 74.6467 15.5762C74.3698 14.9224 74.0051 14.3693 73.5523 13.9167C73.0994 13.4642 72.5711 13.1121 71.9673 12.8607C71.3886 12.6094 70.7722 12.4836 70.1182 12.4836C69.464 12.4836 68.8352 12.6094 68.2314 12.8607C67.6527 13.087 67.137 13.4265 66.6842 13.879C66.2313 14.3316 65.8664 14.8847 65.5898 15.5385C65.313 16.1923 65.1747 16.9339 65.1747 17.7636C65.1747 18.5933 65.313 19.3349 65.5898 19.9887C65.8664 20.6425 66.2313 21.1956 66.6842 21.6482C67.137 22.1007 67.6527 22.4528 68.2314 22.7042C68.8352 22.9305 69.464 23.0436 70.1182 23.0436Z" fill="#2FE68F"/>
<path d="M101.974 22.5531C101.119 24.0617 99.9617 25.2812 98.5026 26.2114C97.0686 27.1416 95.3074 27.6069 93.2194 27.6069C91.8105 27.6069 90.5024 27.3679 89.2948 26.8903C88.1123 26.3873 87.0807 25.6961 86.2004 24.816C85.3198 23.9359 84.6278 22.9052 84.1248 21.7234C83.6467 20.5166 83.4078 19.1966 83.4078 17.7634C83.4078 16.4308 83.6467 15.1738 84.1248 13.992C84.6028 12.7851 85.2694 11.7418 86.1249 10.8617C86.9802 9.95657 87.9864 9.24 89.1438 8.712C90.3261 8.184 91.6218 7.92 93.0307 7.92C94.5149 7.92 95.8357 8.17135 96.9931 8.67429C98.1503 9.15192 99.1188 9.83077 99.8989 10.7109C100.679 11.5656 101.27 12.5839 101.672 13.7657C102.075 14.9475 102.276 16.2298 102.276 17.6126C102.276 17.7885 102.276 17.9393 102.276 18.0651C102.251 18.216 102.239 18.3542 102.239 18.48C102.213 18.6058 102.201 18.744 102.201 18.8949H88.2759C88.3764 19.6491 88.5778 20.3029 88.8797 20.856C89.2067 21.384 89.5967 21.8366 90.0495 22.2137C90.5274 22.5658 91.0431 22.8298 91.5967 23.0057C92.1501 23.1566 92.7162 23.232 93.2949 23.232C94.427 23.232 95.3578 22.9807 96.0874 22.4777C96.8422 21.9497 97.4333 21.2959 97.8611 20.5166L101.974 22.5531ZM97.4837 15.3874C97.4584 15.0607 97.3452 14.6959 97.1441 14.2937C96.9678 13.8915 96.6912 13.5144 96.3139 13.1623C95.9616 12.8102 95.5087 12.5211 94.9553 12.2949C94.427 12.0686 93.7855 11.9554 93.0307 11.9554C91.9741 11.9554 91.0431 12.2571 90.2382 12.8606C89.4331 13.464 88.867 14.3064 88.5401 15.3874H97.4837ZM109.669 17.6126L103.329 8.52343H109.178L112.537 13.6526H112.801L115.971 8.52343H122.009L115.518 17.6126L122.009 27.0034H116.197L112.725 21.7234H112.461L109.103 27.0034H103.253L109.669 17.6126ZM126.487 12.7474H123.242V8.52343H126.487V2.86629H131.431V8.52343H135.959V12.7474H131.431V19.9131C131.431 20.3407 131.468 20.7429 131.544 21.12C131.645 21.4721 131.821 21.7738 132.072 22.0251C132.424 22.4273 132.928 22.6286 133.582 22.6286C134.009 22.6286 134.349 22.5909 134.6 22.5154C134.852 22.4149 135.091 22.2891 135.317 22.1383L136.714 26.4754C136.135 26.7521 135.506 26.9531 134.827 27.0789C134.173 27.2297 133.443 27.3051 132.638 27.3051C131.707 27.3051 130.864 27.1669 130.11 26.8903C129.38 26.5886 128.764 26.1864 128.261 25.6834C127.078 24.552 126.487 22.9429 126.487 20.856V12.7474ZM156.921 22.5531C156.066 24.0617 154.909 25.2812 153.45 26.2114C152.015 27.1416 150.255 27.6069 148.166 27.6069C146.757 27.6069 145.449 27.3679 144.242 26.8903C143.059 26.3873 142.028 25.6961 141.147 24.816C140.267 23.9359 139.575 22.9052 139.072 21.7234C138.594 20.5166 138.355 19.1966 138.355 17.7634C138.355 16.4308 138.594 15.1738 139.072 13.992C139.55 12.7851 140.217 11.7418 141.072 10.8617C141.927 9.95657 142.934 9.24 144.091 8.712C145.273 8.184 146.569 7.92 147.978 7.92C149.462 7.92 150.783 8.17135 151.94 8.67429C153.097 9.15192 154.066 9.83077 154.846 10.7109C155.626 11.5656 156.217 12.5839 156.619 13.7657C157.022 14.9475 157.223 16.2298 157.223 17.6126C157.223 17.7885 157.223 17.9393 157.223 18.0651C157.198 18.216 157.185 18.3542 157.185 18.48C157.16 18.6058 157.148 18.744 157.148 18.8949H143.223C143.323 19.6491 143.525 20.3029 143.827 20.856C144.154 21.384 144.544 21.8366 144.996 22.2137C145.474 22.5658 145.99 22.8298 146.544 23.0057C147.097 23.1566 147.663 23.232 148.242 23.232C149.374 23.232 150.305 22.9807 151.034 22.4777C151.789 21.9497 152.38 21.2959 152.808 20.5166L156.921 22.5531ZM152.431 15.3874C152.406 15.0607 152.292 14.6959 152.091 14.2937C151.915 13.8915 151.638 13.5144 151.261 13.1623C150.908 12.8102 150.456 12.5211 149.902 12.2949C149.374 12.0686 148.732 11.9554 147.978 11.9554C146.921 11.9554 145.99 12.2571 145.185 12.8606C144.38 13.464 143.814 14.3064 143.487 15.3874H152.431ZM165.022 10.9371H165.324C165.903 10.0069 166.682 9.27771 167.664 8.74971C168.645 8.19665 169.764 7.92 171.022 7.92C172.179 7.92 173.198 8.10857 174.079 8.48571C174.96 8.86286 175.677 9.40351 176.23 10.1074C176.809 10.7863 177.236 11.616 177.513 12.5966C177.815 13.5521 177.966 14.6205 177.966 15.8023V27.0034H173.022V16.4057C173.022 15.0731 172.72 14.0925 172.117 13.464C171.538 12.8102 170.683 12.4834 169.551 12.4834C168.871 12.4834 168.267 12.6343 167.739 12.936C167.236 13.2127 166.796 13.6022 166.418 14.1051C166.066 14.5828 165.789 15.1611 165.588 15.84C165.412 16.4938 165.324 17.1977 165.324 17.952V27.0034H160.38V8.52343H165.022V10.9371ZM195.824 24.7783H195.522C195.069 25.5576 194.364 26.2241 193.408 26.7771C192.452 27.3302 191.27 27.6069 189.861 27.6069C188.679 27.6069 187.547 27.3679 186.465 26.8903C185.408 26.3873 184.465 25.7085 183.635 24.8537C182.829 23.9736 182.188 22.9303 181.71 21.7234C181.232 20.5166 180.993 19.1966 180.993 17.7634C180.993 16.3303 181.232 15.0103 181.71 13.8034C182.188 12.5966 182.829 11.5656 183.635 10.7109C184.465 9.83077 185.408 9.15192 186.465 8.67429C187.547 8.17135 188.679 7.92 189.861 7.92C191.27 7.92 192.452 8.19665 193.408 8.74971C194.364 9.30277 195.069 9.96923 195.522 10.7486H195.824L195.522 8.10857V0H200.465V27.0034H195.824V24.7783ZM190.88 23.0434C191.534 23.0434 192.15 22.9303 192.729 22.704C193.333 22.4527 193.861 22.1006 194.314 21.648C194.767 21.1954 195.132 20.6424 195.408 19.9886C195.685 19.3348 195.824 18.5931 195.824 17.7634C195.824 16.9337 195.685 16.1921 195.408 15.5383C195.132 14.8845 194.767 14.3314 194.314 13.8789C193.861 13.4263 193.333 13.0869 192.729 12.8606C192.15 12.6092 191.534 12.4834 190.88 12.4834C190.226 12.4834 189.597 12.6092 188.993 12.8606C188.414 13.1119 187.899 13.464 187.446 13.9166C186.993 14.3691 186.628 14.9222 186.352 15.576C186.075 16.2298 185.936 16.9588 185.936 17.7634C185.936 18.5681 186.075 19.2971 186.352 19.9509C186.628 20.6047 186.993 21.1577 187.446 21.6103C187.899 22.0629 188.414 22.4149 188.993 22.6663C189.597 22.9176 190.226 23.0434 190.88 23.0434ZM222.003 22.5531C221.147 24.0617 219.99 25.2812 218.531 26.2114C217.097 27.1416 215.336 27.6069 213.248 27.6069C211.839 27.6069 210.531 27.3679 209.323 26.8903C208.141 26.3873 207.109 25.6961 206.229 24.816C205.348 23.9359 204.656 22.9052 204.153 21.7234C203.675 20.5166 203.436 19.1966 203.436 17.7634C203.436 16.4308 203.675 15.1738 204.153 13.992C204.631 12.7851 205.298 11.7418 206.153 10.8617C207.009 9.95657 208.015 9.24 209.172 8.712C210.355 8.184 211.65 7.92 213.059 7.92C214.543 7.92 215.864 8.17135 217.022 8.67429C218.179 9.15192 219.147 9.83077 219.927 10.7109C220.707 11.5656 221.298 12.5839 221.701 13.7657C222.103 14.9475 222.305 16.2298 222.305 17.6126C222.305 17.7885 222.305 17.9393 222.305 18.0651C222.279 18.216 222.267 18.3542 222.267 18.48C222.242 18.6058 222.229 18.744 222.229 18.8949H208.304C208.405 19.6491 208.606 20.3029 208.908 20.856C209.235 21.384 209.625 21.8366 210.078 22.2137C210.556 22.5658 211.072 22.8298 211.625 23.0057C212.179 23.1566 212.745 23.232 213.323 23.232C214.455 23.232 215.386 22.9807 216.116 22.4777C216.871 21.9497 217.462 21.2959 217.889 20.5166L222.003 22.5531ZM217.512 15.3874C217.487 15.0607 217.374 14.6959 217.172 14.2937C216.996 13.8915 216.72 13.5144 216.342 13.1623C215.99 12.8102 215.537 12.5211 214.984 12.2949C214.455 12.0686 213.814 11.9554 213.059 11.9554C212.003 11.9554 211.072 12.2571 210.267 12.8606C209.461 13.464 208.895 14.3064 208.568 15.3874H217.512ZM239.42 24.7783H239.118C238.665 25.5576 237.961 26.2241 237.005 26.7771C236.049 27.3302 234.866 27.6069 233.458 27.6069C232.275 27.6069 231.143 27.3679 230.061 26.8903C229.005 26.3873 228.061 25.7085 227.231 24.8537C226.426 23.9736 225.784 22.9303 225.307 21.7234C224.828 20.5166 224.59 19.1966 224.59 17.7634C224.59 16.3303 224.828 15.0103 225.307 13.8034C225.784 12.5966 226.426 11.5656 227.231 10.7109C228.061 9.83077 229.005 9.15192 230.061 8.67429C231.143 8.17135 232.275 7.92 233.458 7.92C234.866 7.92 236.049 8.19665 237.005 8.74971C237.961 9.30277 238.665 9.96923 239.118 10.7486H239.42L239.118 8.10857V0H244.062V27.0034H239.42V24.7783ZM234.477 23.0434C235.131 23.0434 235.747 22.9303 236.326 22.704C236.929 22.4527 237.458 22.1006 237.911 21.648C238.363 21.1954 238.728 20.6424 239.005 19.9886C239.282 19.3348 239.42 18.5931 239.42 17.7634C239.42 16.9337 239.282 16.1921 239.005 15.5383C238.728 14.8845 238.363 14.3314 237.911 13.8789C237.458 13.4263 236.929 13.0869 236.326 12.8606C235.747 12.6092 235.131 12.4834 234.477 12.4834C233.822 12.4834 233.194 12.6092 232.59 12.8606C232.011 13.1119 231.495 13.464 231.043 13.9166C230.59 14.3691 230.225 14.9222 229.948 15.576C229.671 16.2298 229.533 16.9588 229.533 17.7634C229.533 18.5681 229.671 19.2971 229.948 19.9509C230.225 20.6047 230.59 21.1577 231.043 21.6103C231.495 22.0629 232.011 22.4149 232.59 22.6663C233.194 22.9176 233.822 23.0434 234.477 23.0434Z" fill="white"/>
</svg>
