<svg width="766" height="766" viewBox="0 0 766 766" fill="none" xmlns="http://www.w3.org/2000/svg">
<path fill-rule="evenodd" clip-rule="evenodd" d="M263.794 251.695H493.409C497.074 251.695 500.577 253.212 503.084 255.886L609.299 369.176L715.514 255.886L734.865 274.029L627.891 388.129L734.427 491.524L715.952 510.56L609.299 407.051L502.646 510.56C500.171 512.962 496.857 514.305 493.409 514.305H263.794C258.846 514.305 254.309 511.551 252.026 507.161L146.744 304.695L45.9133 496.088L22.4446 483.724L135.086 269.912C137.386 265.546 141.92 262.818 146.856 262.831C151.791 262.844 156.311 265.596 158.587 269.975L271.846 487.779H488.031L590.707 388.129L487.663 278.221H263.794V251.695ZM493.409 399.179H263.794V372.652H493.409V399.179Z" fill="white" stroke="white" stroke-width="10"/>
<path fill-rule="evenodd" clip-rule="evenodd" d="M383 733.147C576.381 733.147 733.147 576.381 733.147 383C733.147 189.619 576.381 32.8526 383 32.8526C189.619 32.8526 32.8526 189.619 32.8526 383C32.8526 576.381 189.619 733.147 383 733.147ZM383 761C591.764 761 761 591.764 761 383C761 174.236 591.764 5 383 5C174.236 5 5 174.236 5 383C5 591.764 174.236 761 383 761Z" fill="#2FE68F" stroke="#2FE68F" stroke-width="10"/>
</svg>
